<svg width="43" height="57" viewBox="0 0 43 57" fill="none" xmlns="http://www.w3.org/2000/svg">
<path fill-rule="evenodd" clip-rule="evenodd" d="M26.6831 51.5887L5.33661 42.6944V14.2325L26.6831 5.3381V51.5887ZM2.18801 47.1629C1.53995 46.8926 0.986384 46.4365 0.597028 45.8522C0.207672 45.2678 -5.85681e-05 44.5813 1.23865e-08 43.8791V13.0477C-5.85681e-05 12.3455 0.207672 11.659 0.597028 11.0747C0.986384 10.4903 1.53995 10.0343 2.18801 9.76393L24.6303 0.410624C25.4413 0.0726151 26.3234 -0.0598817 27.198 0.0248987C28.0726 0.109679 28.9127 0.409113 29.6438 0.896613C30.3749 1.38411 30.9742 2.04459 31.3887 2.81941C31.8032 3.59422 32.0199 4.45939 32.0197 5.3381V7.11697H36.4669C39.9036 7.11697 42.6929 9.90268 42.6929 13.343V43.5838C42.6929 45.2351 42.037 46.8187 40.8693 47.9863C39.7017 49.1539 38.1181 49.8099 36.4669 49.8099H32.0197V51.5887C32.0199 52.4675 31.8032 53.3326 31.3887 54.1074C30.9742 54.8823 30.3749 55.5427 29.6438 56.0302C28.9127 56.5177 28.0726 56.8172 27.198 56.9019C26.3234 56.9867 25.4413 56.8542 24.6303 56.5162L2.18801 47.1629ZM32.0197 44.4733H36.4669C36.7028 44.4733 36.929 44.3796 37.0958 44.2128C37.2626 44.046 37.3563 43.8197 37.3563 43.5838V13.343C37.3563 13.1071 37.2626 12.8809 37.0958 12.7141C36.929 12.5473 36.7028 12.4536 36.4669 12.4536H32.0197V44.4733Z" fill="#3C3B72"/>
</svg>
