<svg width="132" height="132" viewBox="0 0 132 132" fill="none" xmlns="http://www.w3.org/2000/svg">
<ellipse cx="65.7696" cy="65.5465" rx="65.7694" ry="65.5465" fill="white"/>
<path d="M116.914 77.7496C95.8049 102.319 114.114 84.0968 90.8506 106.517C67.587 82.2541 70.2795 92.5938 63.9251 74.3713C67.8024 49.2897 98.6051 73.0404 90.8506 68.0241C98.9282 63.3149 116.914 54.7946 116.914 77.7496Z" fill="#D9D9D9"/>
<path d="M115.157 63.9841C112.378 61.1533 108.613 59.5614 104.686 59.5565C100.76 59.5516 96.9916 61.1341 94.2049 63.958L90.8595 67.1304L87.5115 63.9475C84.7256 61.1114 80.9501 59.5212 77.0157 59.5269C73.0813 59.5325 69.3103 61.1335 66.5321 63.9776C63.754 66.8216 62.1963 70.6759 62.2019 74.6924C62.2074 78.7089 63.7756 82.5587 66.5615 85.3949L89.4144 109.067C89.6048 109.264 89.8317 109.421 90.082 109.528C90.3323 109.635 90.6009 109.69 90.8723 109.69C91.1436 109.69 91.4123 109.635 91.6625 109.528C91.9128 109.421 92.1398 109.264 92.3302 109.067L115.157 85.3949C117.938 82.555 119.499 78.7044 119.499 74.6895C119.499 70.6745 117.938 66.8239 115.157 63.9841ZM112.254 82.46L90.8595 104.612L69.4517 82.4391C67.437 80.3824 66.3052 77.5929 66.3052 74.6842C66.3052 71.7756 67.437 68.9861 69.4517 66.9294C71.4664 64.8726 74.1989 63.7172 77.048 63.7172C79.8972 63.7172 82.6297 64.8726 84.6443 66.9294L84.6955 66.9816L89.4656 71.5118C89.8442 71.8715 90.3423 72.0715 90.8595 72.0715C91.3767 72.0715 91.8748 71.8715 92.2534 71.5118L97.0235 66.9816L97.0747 66.9294C99.0907 64.874 101.824 63.7205 104.673 63.7224C107.522 63.7244 110.254 64.8817 112.267 66.9398C114.281 68.9979 115.411 71.7882 115.409 74.6969C115.407 77.6055 114.273 80.3942 112.257 82.4496L112.254 82.46Z" fill="#3E7FBB"/>
<path d="M101.785 81.6505C92.5798 91.8795 100.564 84.293 90.4192 93.627C80.2742 83.5258 81.4484 87.8305 78.6773 80.244C80.3681 69.8019 93.8009 79.6899 90.4192 77.6015C93.9418 75.6409 101.785 72.0937 101.785 81.6505Z" fill="#D9D9D9"/>
<path d="M101.02 75.9199C99.8074 74.7413 98.1657 74.0786 96.4534 74.0766C94.7411 74.0745 93.0977 74.7334 91.8825 75.909L90.4236 77.2298L88.9636 75.9047C87.7486 74.7239 86.1022 74.0619 84.3865 74.0642C82.6707 74.0666 81.0262 74.7331 79.8147 75.9172C78.6031 77.1012 77.9239 78.7059 77.9263 80.378C77.9287 82.0502 78.6126 83.653 79.8275 84.8337L89.7934 94.689C89.8764 94.7712 89.9754 94.8364 90.0845 94.881C90.1937 94.9255 90.3108 94.9485 90.4292 94.9485C90.5475 94.9485 90.6646 94.9255 90.7738 94.881C90.8829 94.8364 90.9819 94.7712 91.0649 94.689L101.02 84.8337C102.232 83.6514 102.913 82.0483 102.913 80.3768C102.913 78.7053 102.232 77.1022 101.02 75.9199ZM99.7537 83.6119L90.4236 92.8345L81.0879 83.6032C80.2093 82.7469 79.7157 81.5856 79.7157 80.3746C79.7157 79.1637 80.2093 78.0023 81.0879 77.1461C81.9664 76.2898 83.158 75.8088 84.4005 75.8088C85.643 75.8088 86.8346 76.2898 87.7132 77.1461L87.7355 77.1678L89.8157 79.0539C89.9808 79.2036 90.198 79.2869 90.4236 79.2869C90.6492 79.2869 90.8664 79.2036 91.0315 79.0539L93.1117 77.1678L93.134 77.1461C94.0131 76.2904 95.2051 75.8101 96.4476 75.8109C97.6901 75.8117 98.8813 76.2936 99.7593 77.1504C100.637 78.0073 101.13 79.1689 101.129 80.3799C101.128 81.5908 100.634 82.7519 99.7549 83.6075L99.7537 83.6119Z" fill="#3E7FBB"/>
<path d="M90.8516 80.002C91.8032 80.002 92.5751 80.7731 92.5753 81.7246V82.8682H93.9532C94.8576 82.8684 95.5907 83.6015 95.5909 84.5059C95.5909 85.4104 94.8577 86.1443 93.9532 86.1445H92.5753V87.4922C92.5752 88.4438 91.8033 89.2148 90.8516 89.2148C89.8999 89.2148 89.128 88.4439 89.128 87.4922V86.1445H87.5352C86.6308 86.1443 85.8975 85.4104 85.8975 84.5059C85.8977 83.6015 86.6309 82.8684 87.5352 82.8682H89.128V81.7246C89.1282 80.773 89.9 80.002 90.8516 80.002Z" fill="white"/>
<path d="M116.914 77.7496C95.8049 102.319 114.114 84.0968 90.8506 106.517C67.587 82.2541 70.2795 92.5938 63.9251 74.3713C67.8024 49.2897 98.6051 73.0404 90.8506 68.0241C98.9282 63.3149 116.914 54.7946 116.914 77.7496Z" fill="white"/>
<path d="M115.157 63.9841C112.378 61.1533 108.613 59.5614 104.686 59.5565C100.76 59.5516 96.9916 61.1341 94.2049 63.958L90.8595 67.1304L87.5115 63.9475C84.7256 61.1114 80.9501 59.5212 77.0157 59.5269C73.0813 59.5325 69.3103 61.1335 66.5321 63.9776C63.754 66.8216 62.1963 70.6759 62.2019 74.6924C62.2074 78.7089 63.7756 82.5587 66.5615 85.3949L89.4144 109.067C89.6048 109.264 89.8317 109.421 90.082 109.528C90.3323 109.635 90.6009 109.69 90.8723 109.69C91.1436 109.69 91.4123 109.635 91.6625 109.528C91.9128 109.421 92.1398 109.264 92.3302 109.067L115.157 85.3949C117.938 82.555 119.499 78.7044 119.499 74.6895C119.499 70.6745 117.938 66.8239 115.157 63.9841ZM112.254 82.46L90.8595 104.612L69.4517 82.4391C67.437 80.3824 66.3052 77.5929 66.3052 74.6842C66.3052 71.7756 67.437 68.9861 69.4517 66.9294C71.4664 64.8726 74.1989 63.7172 77.048 63.7172C79.8972 63.7172 82.6297 64.8726 84.6443 66.9294L84.6955 66.9816L89.4656 71.5118C89.8442 71.8715 90.3423 72.0715 90.8595 72.0715C91.3767 72.0715 91.8748 71.8715 92.2534 71.5118L97.0235 66.9816L97.0747 66.9294C99.0907 64.874 101.824 63.7205 104.673 63.7224C107.522 63.7244 110.254 64.8817 112.267 66.9398C114.281 68.9979 115.411 71.7882 115.409 74.6969C115.407 77.6055 114.273 80.3942 112.257 82.4496L112.254 82.46Z" fill="#3E7FBB"/>
<path d="M101.785 81.6505C92.5797 91.8795 100.564 84.293 90.4192 93.627C80.2741 83.5258 81.4483 87.8305 78.6772 80.244C80.3681 69.8019 93.8009 79.6899 90.4192 77.6015C93.9418 75.6409 101.785 72.0937 101.785 81.6505Z" fill="#EB1404"/>
<path d="M101.02 75.9199C99.8074 74.7413 98.1656 74.0786 96.4533 74.0766C94.7411 74.0745 93.0977 74.7334 91.8824 75.909L90.4235 77.2298L88.9635 75.9047C87.7486 74.7239 86.1021 74.0619 84.3864 74.0642C82.6706 74.0666 81.0261 74.7331 79.8146 75.9172C78.6031 77.1012 77.9238 78.7059 77.9262 80.378C77.9286 82.0502 78.6125 83.653 79.8274 84.8337L89.7933 94.689C89.8764 94.7712 89.9753 94.8364 90.0845 94.881C90.1936 94.9255 90.3108 94.9485 90.4291 94.9485C90.5474 94.9485 90.6646 94.9255 90.7737 94.881C90.8829 94.8364 90.9818 94.7712 91.0649 94.689L101.02 84.8337C102.232 83.6514 102.913 82.0483 102.913 80.3768C102.913 78.7053 102.232 77.1022 101.02 75.9199ZM99.7537 83.6119L90.4235 92.8345L81.0878 83.6032C80.2092 82.7469 79.7157 81.5856 79.7157 80.3746C79.7157 79.1637 80.2092 78.0023 81.0878 77.1461C81.9664 76.2898 83.158 75.8088 84.4005 75.8088C85.643 75.8088 86.8346 76.2898 87.7132 77.1461L87.7355 77.1678L89.8157 79.0539C89.9808 79.2036 90.198 79.2869 90.4235 79.2869C90.6491 79.2869 90.8663 79.2036 91.0314 79.0539L93.1116 77.1678L93.1339 77.1461C94.0131 76.2904 95.205 75.8101 96.4475 75.8109C97.69 75.8117 98.8813 76.2936 99.7593 77.1504C100.637 78.0073 101.13 79.1689 101.129 80.3799C101.128 81.5908 100.634 82.7519 99.7548 83.6075L99.7537 83.6119Z" fill="#EB1404"/>
<path d="M90.6344 80.002C91.586 80.002 92.3569 80.7731 92.3571 81.7246V82.8682H93.736C94.6403 82.8684 95.3735 83.6015 95.3737 84.5059C95.3737 85.4103 94.6404 86.1443 93.736 86.1445H92.3571V87.4922C92.357 88.4438 91.586 89.2148 90.6344 89.2148C89.6827 89.2148 88.9108 88.4439 88.9108 87.4922V86.1445H87.318C86.4135 86.1444 85.6803 85.4104 85.6803 84.5059C85.6804 83.6015 86.4136 82.8683 87.318 82.8682H88.9108V81.7246C88.9109 80.773 89.6828 80.002 90.6344 80.002Z" fill="white"/>
<path d="M67.8064 77.7302C46.204 102.143 64.9407 84.0369 41.134 106.314C17.3272 82.2059 20.0827 92.4797 13.5799 74.3735C17.5477 49.4519 49.0695 73.0511 41.134 68.0668C49.4002 63.3876 67.8064 54.9217 67.8064 77.7302Z" fill="#D9D9D9"/>
<path d="M66.0078 64.0528C63.1631 61.2401 59.3104 59.6584 55.2924 59.6535C51.2743 59.6486 47.4178 61.221 44.5661 64.0269L41.1426 67.1791L37.7164 64.0165C34.8654 61.1985 31.0019 59.6184 26.9756 59.624C22.9494 59.6296 19.0903 61.2204 16.2473 64.0463C13.4043 66.8723 11.8103 70.7019 11.8159 74.6928C11.8215 78.6837 13.4264 82.5089 16.2774 85.327L39.6638 108.848C39.8586 109.044 40.0908 109.2 40.347 109.306C40.6031 109.412 40.878 109.467 41.1557 109.467C41.4334 109.467 41.7083 109.412 41.9644 109.306C42.2205 109.2 42.4528 109.044 42.6476 108.848L66.0078 85.327C68.8528 82.5052 70.451 78.6792 70.451 74.6899C70.451 70.7006 68.8528 66.8745 66.0078 64.0528ZM63.0371 82.4108L41.1426 104.422L19.235 82.3901C17.1733 80.3465 16.0151 77.5748 16.0151 74.6847C16.0151 71.7946 17.1733 69.0229 19.235 66.9793C21.2967 64.9357 24.093 63.7876 27.0087 63.7876C29.9244 63.7876 32.7206 64.9357 34.7823 66.9793L34.8347 67.0312L39.7161 71.5325C40.1036 71.8899 40.6133 72.0886 41.1426 72.0886C41.6719 72.0886 42.1816 71.8899 42.5691 71.5325L47.4505 67.0312L47.5029 66.9793C49.5659 64.9371 52.363 63.7909 55.2787 63.7928C58.1944 63.7948 60.9899 64.9447 63.0502 66.9897C65.1105 69.0346 66.2669 71.8071 66.2649 74.6972C66.2629 77.5873 65.1028 80.3582 63.0397 82.4005L63.0371 82.4108Z" fill="#3E7FBB"/>
<path d="M52.324 81.6066C42.9034 91.7703 51.0743 84.2322 40.6924 93.5066C30.3105 83.4699 31.5122 87.7472 28.6764 80.2091C30.4067 69.8336 44.1531 79.6585 40.6924 77.5834C44.2973 75.6354 52.324 72.1108 52.324 81.6066Z" fill="#D9D9D9"/>
<path d="M51.54 75.9122C50.2995 74.7412 48.6194 74.0827 46.8671 74.0806C45.1149 74.0786 43.4331 74.7332 42.1895 75.9014L40.6966 77.2137L39.2024 75.8971C37.9592 74.7238 36.2743 74.066 34.5185 74.0684C32.7627 74.0707 31.0798 74.733 29.8399 75.9095C28.6001 77.086 27.905 78.6804 27.9075 80.3419C27.9099 82.0034 28.6098 83.596 29.8531 84.7692L40.0517 94.5616C40.1366 94.6432 40.2379 94.708 40.3496 94.7523C40.4613 94.7965 40.5812 94.8193 40.7023 94.8193C40.8234 94.8193 40.9432 94.7965 41.0549 94.7523C41.1666 94.708 41.2679 94.6432 41.3529 94.5616L51.54 84.7692C52.7807 83.5944 53.4777 82.0015 53.4777 80.3407C53.4777 78.6798 52.7807 77.0869 51.54 75.9122ZM50.2445 83.5551L40.6966 92.7189L31.1429 83.5465C30.2438 82.6957 29.7387 81.5417 29.7387 80.3385C29.7387 79.1353 30.2438 77.9814 31.1429 77.1306C32.042 76.2798 33.2614 75.8018 34.5329 75.8018C35.8044 75.8018 37.0238 76.2798 37.9229 77.1306L37.9457 77.1522L40.0745 79.0262C40.2435 79.175 40.4657 79.2577 40.6966 79.2577C40.9274 79.2577 41.1497 79.175 41.3186 79.0262L43.4474 77.1522L43.4702 77.1306C44.3699 76.2803 45.5897 75.8031 46.8612 75.8039C48.1327 75.8047 49.3518 76.2835 50.2502 77.1349C51.1487 77.9863 51.653 79.1405 51.6521 80.3437C51.6513 81.5469 51.1454 82.7006 50.2457 83.5508L50.2445 83.5551Z" fill="#3E7FBB"/>
<path d="M41.1329 79.968C42.1069 79.968 42.8966 80.7578 42.8966 81.7317V82.8167H44.3556C45.2543 82.8168 45.9824 83.5449 45.9825 84.4436C45.9825 85.3424 45.2543 86.0714 44.3556 86.0715H42.8966V87.3596C42.8964 88.3334 42.1067 89.1223 41.1329 89.1223C40.1592 89.1222 39.3695 88.3333 39.3693 87.3596V86.0715H37.6906C36.7919 86.0713 36.0636 85.3423 36.0636 84.4436C36.0637 83.545 36.7919 82.8168 37.6906 82.8167H39.3693V81.7317C39.3693 80.7578 40.1591 79.9681 41.1329 79.968Z" fill="white"/>
<path d="M67.8064 77.7302C46.204 102.143 64.9407 84.0369 41.134 106.314C17.3272 82.2059 20.0827 92.4797 13.5799 74.3735C17.5477 49.4519 49.0695 73.0511 41.134 68.0668C49.4002 63.3876 67.8064 54.9217 67.8064 77.7302Z" fill="white"/>
<path d="M66.0078 64.0528C63.1631 61.2401 59.3104 59.6584 55.2924 59.6535C51.2743 59.6486 47.4178 61.221 44.5661 64.0269L41.1426 67.1791L37.7164 64.0165C34.8654 61.1985 31.0019 59.6184 26.9756 59.624C22.9494 59.6296 19.0903 61.2204 16.2473 64.0463C13.4043 66.8723 11.8103 70.7019 11.8159 74.6928C11.8215 78.6837 13.4264 82.5089 16.2774 85.327L39.6638 108.848C39.8586 109.044 40.0908 109.2 40.347 109.306C40.6031 109.412 40.878 109.467 41.1557 109.467C41.4334 109.467 41.7083 109.412 41.9644 109.306C42.2205 109.2 42.4528 109.044 42.6476 108.848L66.0078 85.327C68.8528 82.5052 70.451 78.6792 70.451 74.6899C70.451 70.7006 68.8528 66.8745 66.0078 64.0528ZM63.0371 82.4108L41.1426 104.422L19.235 82.3901C17.1733 80.3465 16.0151 77.5748 16.0151 74.6847C16.0151 71.7946 17.1733 69.0229 19.235 66.9793C21.2967 64.9357 24.093 63.7876 27.0087 63.7876C29.9244 63.7876 32.7206 64.9357 34.7823 66.9793L34.8347 67.0312L39.7161 71.5325C40.1036 71.8899 40.6133 72.0886 41.1426 72.0886C41.6719 72.0886 42.1816 71.8899 42.5691 71.5325L47.4505 67.0312L47.5029 66.9793C49.5659 64.9371 52.363 63.7909 55.2787 63.7928C58.1944 63.7948 60.9899 64.9447 63.0502 66.9897C65.1105 69.0346 66.2669 71.8071 66.2649 74.6972C66.2629 77.5873 65.1028 80.3582 63.0397 82.4005L63.0371 82.4108Z" fill="#3E7FBB"/>
<path d="M52.3237 81.6066C42.9031 91.7703 51.074 84.2322 40.6921 93.5066C30.3102 83.4699 31.5118 87.7472 28.6761 80.2091C30.4064 69.8336 44.1527 79.6585 40.6921 77.5834C44.2969 75.6354 52.3237 72.1108 52.3237 81.6066Z" fill="#EB1404"/>
<path d="M51.5397 75.9122C50.2992 74.7412 48.6191 74.0827 46.8668 74.0806C45.1146 74.0786 43.4328 74.7332 42.1892 75.9014L40.6963 77.2137L39.2021 75.8971C37.9589 74.7238 36.274 74.066 34.5182 74.0684C32.7624 74.0707 31.0794 74.733 29.8396 75.9095C28.5998 77.086 27.9047 78.6804 27.9072 80.3419C27.9096 82.0034 28.6095 83.596 29.8528 84.7692L40.0514 94.5616C40.1363 94.6432 40.2376 94.708 40.3493 94.7523C40.461 94.7965 40.5809 94.8193 40.702 94.8193C40.8231 94.8193 40.9429 94.7965 41.0546 94.7523C41.1663 94.708 41.2676 94.6432 41.3526 94.5616L51.5397 84.7692C52.7804 83.5944 53.4774 82.0015 53.4774 80.3407C53.4774 78.6798 52.7804 77.0869 51.5397 75.9122ZM50.2442 83.5551L40.6963 92.7189L31.1426 83.5465C30.2435 82.6957 29.7384 81.5417 29.7384 80.3385C29.7384 79.1353 30.2435 77.9814 31.1426 77.1306C32.0417 76.2798 33.2611 75.8018 34.5326 75.8018C35.8041 75.8018 37.0235 76.2798 37.9226 77.1306L37.9454 77.1522L40.0742 79.0262C40.2432 79.175 40.4654 79.2577 40.6963 79.2577C40.9271 79.2577 41.1493 79.175 41.3183 79.0262L43.4471 77.1522L43.4699 77.1306C44.3696 76.2803 45.5894 75.8031 46.8609 75.8039C48.1324 75.8047 49.3515 76.2835 50.2499 77.1349C51.1484 77.9863 51.6527 79.1405 51.6518 80.3437C51.651 81.5469 51.1451 82.7006 50.2454 83.5508L50.2442 83.5551Z" fill="#EB1404"/>
<path d="M40.9125 79.9683C41.8865 79.9683 42.6762 80.758 42.6762 81.7319V82.8159H44.1352C45.0339 82.816 45.7621 83.5451 45.7621 84.4438C45.7621 85.3426 45.0339 86.0717 44.1352 86.0718H42.6762V87.3599C42.676 88.3336 41.8863 89.1226 40.9125 89.1226C39.9389 89.1224 39.1491 88.3335 39.1489 87.3599V86.0718H37.4702C36.5715 86.0716 35.8432 85.3426 35.8432 84.4438C35.8432 83.5451 36.5715 82.8161 37.4702 82.8159H39.1489V81.7319C39.1489 80.7581 39.9387 79.9684 40.9125 79.9683Z" fill="white"/>
<path d="M94.1154 72.781C70.7059 101.173 91.01 80.1155 65.2118 106.023C39.4137 77.9861 42.3996 89.9343 35.3528 68.8771C39.6525 39.894 73.8112 67.3392 65.2118 61.5426C74.1695 56.1008 94.1154 46.2552 94.1154 72.781Z" fill="#D9D9D9"/>
<path d="M92.167 56.8747C89.0843 53.6036 84.9094 51.7641 80.5552 51.7584C76.201 51.7527 72.0219 53.5814 68.9317 56.8445L65.2218 60.5105L61.509 56.8325C58.4196 53.5551 54.2328 51.7176 49.8697 51.7241C45.5067 51.7306 41.3248 53.5806 38.244 56.8672C35.1631 60.1537 33.4358 64.6075 33.4419 69.2488C33.448 73.8901 35.1871 78.3387 38.2766 81.616L63.6193 108.97C63.8304 109.198 64.0821 109.379 64.3596 109.503C64.6372 109.627 64.9351 109.69 65.236 109.69C65.5369 109.69 65.8348 109.627 66.1123 109.503C66.3899 109.379 66.6415 109.198 66.8527 108.97L92.167 81.616C95.25 78.3345 96.9819 73.8848 96.9819 69.2454C96.9819 64.6059 95.25 60.1563 92.167 56.8747ZM88.9478 78.2247L65.2218 103.823L41.4816 78.2005C39.2475 75.8239 37.9923 72.6004 37.9923 69.2393C37.9923 65.8782 39.2475 62.6548 41.4816 60.2781C43.7158 57.9015 46.746 56.5663 49.9056 56.5663C53.0651 56.5663 56.0953 57.9015 58.3295 60.2781L58.3862 60.3385L63.676 65.5734C64.0959 65.9891 64.6482 66.2202 65.2218 66.2202C65.7954 66.2202 66.3477 65.9891 66.7676 65.5734L72.0574 60.3385L72.1141 60.2781C74.3498 57.9031 77.3808 56.5701 80.5404 56.5723C83.6999 56.5746 86.7293 57.9119 88.9619 60.2902C91.1946 62.6685 92.4477 65.8928 92.4456 69.2539C92.4434 72.615 91.1863 75.8375 88.9506 78.2126L88.9478 78.2247Z" fill="#3E7FBB"/>
<path d="M77.3399 77.289C67.1313 89.1092 75.9857 80.3425 64.7354 91.1284C53.485 79.456 54.7871 84.4303 51.7141 75.6637C53.5892 63.5972 68.4855 75.0234 64.7354 72.6101C68.6417 70.3446 77.3399 66.2456 77.3399 77.289Z" fill="#D9D9D9"/>
<path d="M76.4901 70.6663C75.1457 69.3044 73.3251 68.5386 71.4263 68.5362C69.5275 68.5339 67.705 69.2952 66.3574 70.6537L64.7395 72.18L63.1204 70.6487C61.7731 69.2843 59.9473 68.5193 58.0446 68.522C56.142 68.5247 54.3183 69.2949 52.9747 70.6632C51.6312 72.0314 50.878 73.8856 50.8806 75.818C50.8833 77.7503 51.6417 79.6023 52.989 80.9668L64.0407 92.3551C64.1327 92.45 64.2425 92.5254 64.3635 92.5769C64.4846 92.6284 64.6145 92.6549 64.7457 92.6549C64.8769 92.6549 65.0068 92.6284 65.1279 92.5769C65.2489 92.5254 65.3587 92.45 65.4507 92.3551L76.4901 80.9668C77.8345 79.6006 78.5898 77.7481 78.5898 75.8165C78.5898 73.885 77.8345 72.0325 76.4901 70.6663ZM75.0862 79.5548L64.7395 90.2121L54.3867 79.5448C53.4124 78.5553 52.865 77.2133 52.865 75.814C52.865 74.4147 53.4124 73.0727 54.3867 72.0832C55.361 71.0938 56.6824 70.5379 58.0603 70.5379C59.4381 70.5379 60.7596 71.0938 61.7338 72.0832L61.7586 72.1084L64.0654 74.2878C64.2485 74.4608 64.4894 74.5571 64.7395 74.5571C64.9897 74.5571 65.2305 74.4608 65.4136 74.2878L67.7204 72.1084L67.7452 72.0832C68.7201 71.0944 70.0419 70.5395 71.4198 70.5404C72.7977 70.5413 74.1187 71.0981 75.0924 72.0883C76.066 73.0784 76.6125 74.4208 76.6115 75.8201C76.6106 77.2194 76.0624 78.561 75.0874 79.5498L75.0862 79.5548Z" fill="#3E7FBB"/>
<path d="M65.2851 75.3833C66.2995 75.3833 67.122 76.2058 67.122 77.2202V78.6958H68.6298C69.6443 78.6958 70.4667 79.5182 70.4667 80.5327V80.644C70.4667 81.6585 69.6443 82.481 68.6298 82.481H67.122V84.1938C67.1218 85.2081 66.2994 86.0297 65.2851 86.0298H65.1367C64.1224 86.0297 63.3 85.2081 63.2997 84.1938V82.481H61.5546C60.5402 82.481 59.7177 81.6585 59.7177 80.644V80.5327C59.7177 79.5182 60.5402 78.6958 61.5546 78.6958H63.2997V77.2202C63.2998 76.2058 64.1223 75.3834 65.1367 75.3833H65.2851Z" fill="white"/>
<path d="M94.1154 72.781C70.7059 101.173 91.01 80.1155 65.2118 106.023C39.4137 77.9861 42.3996 89.9343 35.3528 68.8771C39.6525 39.894 73.8112 67.3392 65.2118 61.5426C74.1695 56.1008 94.1154 46.2552 94.1154 72.781Z" fill="white"/>
<path d="M92.167 56.8747C89.0843 53.6036 84.9094 51.7641 80.5552 51.7584C76.201 51.7527 72.0219 53.5814 68.9317 56.8445L65.2218 60.5105L61.509 56.8325C58.4196 53.5551 54.2328 51.7176 49.8697 51.7241C45.5067 51.7306 41.3248 53.5806 38.244 56.8672C35.1631 60.1537 33.4358 64.6075 33.4419 69.2488C33.448 73.8901 35.1871 78.3387 38.2766 81.616L63.6193 108.97C63.8304 109.198 64.0821 109.379 64.3596 109.503C64.6372 109.627 64.9351 109.69 65.236 109.69C65.5369 109.69 65.8348 109.627 66.1123 109.503C66.3899 109.379 66.6415 109.198 66.8527 108.97L92.167 81.616C95.25 78.3345 96.9819 73.8848 96.9819 69.2454C96.9819 64.6059 95.25 60.1563 92.167 56.8747ZM88.9478 78.2247L65.2218 103.823L41.4816 78.2005C39.2475 75.8239 37.9923 72.6004 37.9923 69.2393C37.9923 65.8782 39.2475 62.6548 41.4816 60.2781C43.7158 57.9015 46.746 56.5663 49.9056 56.5663C53.0651 56.5663 56.0953 57.9015 58.3295 60.2781L58.3862 60.3385L63.676 65.5734C64.0959 65.9891 64.6482 66.2202 65.2218 66.2202C65.7954 66.2202 66.3477 65.9891 66.7676 65.5734L72.0574 60.3385L72.1141 60.2781C74.3498 57.9031 77.3808 56.5701 80.5404 56.5723C83.6999 56.5746 86.7293 57.9119 88.9619 60.2902C91.1946 62.6685 92.4477 65.8928 92.4456 69.2539C92.4434 72.615 91.1863 75.8375 88.9506 78.2126L88.9478 78.2247Z" fill="#3E7FBB"/>
<path d="M77.3402 77.2887C67.1316 89.1089 75.986 80.3423 64.7357 91.1282C53.4854 79.4558 54.7875 84.4301 51.7145 75.6634C53.5895 63.597 68.4858 75.0232 64.7357 72.6099C68.6421 70.3443 77.3402 66.2453 77.3402 77.2887Z" fill="#F374BB"/>
<path d="M76.4904 70.6663C75.1461 69.3044 73.3254 68.5386 71.4266 68.5362C69.5278 68.5339 67.7053 69.2952 66.3577 70.6537L64.7399 72.18L63.1207 70.6487C61.7735 69.2843 59.9477 68.5193 58.045 68.522C56.1423 68.5247 54.3186 69.2949 52.9751 70.6632C51.6316 72.0314 50.8783 73.8856 50.881 75.818C50.8836 77.7503 51.642 79.6023 52.9893 80.9668L64.041 92.3551C64.1331 92.45 64.2428 92.5254 64.3639 92.5769C64.4849 92.6284 64.6148 92.6549 64.746 92.6549C64.8773 92.6549 65.0072 92.6284 65.1282 92.5769C65.2492 92.5254 65.359 92.45 65.4511 92.3551L76.4904 80.9668C77.8349 79.6006 78.5901 77.7481 78.5901 75.8165C78.5901 73.885 77.8349 72.0325 76.4904 70.6663ZM75.0865 79.5548L64.7399 90.2121L54.387 79.5448C53.4127 78.5553 52.8654 77.2133 52.8654 75.814C52.8654 74.4147 53.4127 73.0727 54.387 72.0832C55.3613 71.0938 56.6827 70.5379 58.0606 70.5379C59.4385 70.5379 60.7599 71.0938 61.7342 72.0832L61.7589 72.1084L64.0657 74.2878C64.2489 74.4608 64.4897 74.5571 64.7399 74.5571C64.99 74.5571 65.2308 74.4608 65.414 74.2878L67.7208 72.1084L67.7455 72.0832C68.7205 71.0944 70.0423 70.5395 71.4201 70.5404C72.798 70.5413 74.1191 71.0981 75.0927 72.0883C76.0663 73.0784 76.6128 74.4208 76.6119 75.8201C76.6109 77.2194 76.0627 78.561 75.0877 79.5498L75.0865 79.5548Z" fill="#F374BB"/>
<path d="M65.0475 75.3833C66.0619 75.3834 66.8844 76.2058 66.8844 77.2202V78.6958H68.3922C69.4067 78.6958 70.2291 79.5182 70.2291 80.5327V80.644C70.2291 81.6585 69.4067 82.481 68.3922 82.481H66.8844V84.1938C66.8842 85.2081 66.0617 86.0297 65.0475 86.0298H64.899C63.8847 86.0298 63.0624 85.2081 63.0621 84.1938V82.481H61.317C60.3026 82.481 59.4801 81.6585 59.4801 80.644V80.5327C59.4801 79.5182 60.3026 78.6958 61.317 78.6958H63.0621V77.2202C63.0622 76.2058 63.8846 75.3833 64.899 75.3833H65.0475Z" fill="white"/>
<path d="M87.3958 32.6035C91.8805 32.6035 95.3684 36.0534 95.3684 40.1309C95.3681 44.2081 91.8803 47.6572 87.3958 47.6572C82.9112 47.6572 79.4234 44.208 79.4231 40.1309C79.4231 36.0535 82.9111 32.6036 87.3958 32.6035Z" fill="white" stroke="#3E7FBB" stroke-width="3.67371"/>
<path d="M43.9212 32.6035C48.4059 32.6035 51.8938 36.0534 51.8938 40.1309C51.8936 44.2081 48.4057 47.6572 43.9212 47.6572C39.4367 47.6572 35.9488 44.208 35.9485 40.1309C35.9485 36.0535 39.4365 32.6036 43.9212 32.6035Z" fill="white" stroke="#3E7FBB" stroke-width="3.67371"/>
<path d="M65.7707 23.2397C72.9641 23.2399 78.6476 28.7857 78.6476 35.4487C78.6475 42.1117 72.9641 47.6575 65.7707 47.6577C58.5772 47.6577 52.8929 42.1118 52.8928 35.4487C52.8928 28.7856 58.5771 23.2397 65.7707 23.2397Z" fill="white" stroke="#3E7FBB" stroke-width="3.67371"/>
</svg>
